<?xml version="1.0" encoding="UTF-8"?>
<svg version="1.1" xmlns="http://www.w3.org/2000/svg" width="177" height="177">
<path d="M0 0 C58.41 0 116.82 0 177 0 C177 58.41 177 116.82 177 177 C118.59 177 60.18 177 0 177 C0 118.59 0 60.18 0 0 Z " fill="#028ED0" transform="translate(0,0)"/>
<path d="M0 0 C10.23 0 20.46 0 31 0 C31 37.62 31 75.24 31 114 C20.77 114 10.54 114 0 114 C0 76.38 0 38.76 0 0 Z " fill="#FEFEFE" transform="translate(127,30)"/>
<path d="M0 0 C10.23 0 20.46 0 31 0 C31 37.62 31 75.24 31 114 C20.77 114 10.54 114 0 114 C0 76.38 0 38.76 0 0 Z " fill="#FDFEFD" transform="translate(72,30)"/>
<path d="M0 0 C0 36.63 0 73.26 0 111 C-9.9 111 -19.8 111 -30 111 C-30 78.99 -30 46.98 -30 14 C-22.41 10.37 -14.82 6.74 -7 3 C-2 0 -2 0 0 0 Z " fill="#FCFDFC" transform="translate(47,33)"/>
<path d="M0 0 C0 0.33 0 0.66 0 1 C0.639375 1.2475 1.27875 1.495 1.9375 1.75 C4 3 4 3 4.8125 5.0625 C4.874375 5.701875 4.93625 6.34125 5 7 C4.67 7.33 4.34 7.66 4 8 C3.89232174 9.44169463 3.85319047 10.88857858 3.84178162 12.33424377 C3.82709839 13.73726242 3.82709839 13.73726242 3.81211853 15.16862488 C3.80636307 16.20296158 3.8006076 17.23729828 3.79467773 18.30297852 C3.78477814 19.38577087 3.77487854 20.46856323 3.76467896 21.58416748 C3.73295588 25.18239109 3.70826397 28.78062793 3.68359375 32.37890625 C3.66303355 34.86612807 3.64203734 37.35334632 3.62062073 39.84056091 C3.57096517 45.73017888 3.52572497 51.61981797 3.48259836 57.50948709 C3.42843101 64.87029421 3.36745396 72.23104219 3.30664062 79.59179688 C3.19894122 92.72782439 3.09733335 105.8638918 3 119 C2.67 119 2.34 119 2 119 C2 81.38 2 43.76 2 5 C-8.23 5 -18.46 5 -29 5 C-29 42.62 -29 80.24 -29 119 C-29.33 119 -29.66 119 -30 119 C-30.33 82.04 -30.66 45.08 -31 7 C-31.99 7 -32.98 7 -34 7 C-34 43.63 -34 80.26 -34 118 C-34.99 118.495 -34.99 118.495 -36 119 C-36.04673718 104.35299968 -36.08199727 89.70600923 -36.10362434 75.05894947 C-36.11393343 68.2579429 -36.12798673 61.45698268 -36.15087891 54.65600586 C-36.17295508 48.09432262 -36.18456472 41.53267493 -36.18975449 34.97095299 C-36.1934536 32.4658908 -36.2006769 29.96083128 -36.21146011 27.45578957 C-36.22594989 23.95069273 -36.22797897 20.44579573 -36.22705078 16.94067383 C-36.23424133 15.90201675 -36.24143188 14.86335968 -36.24884033 13.79322815 C-36.246091 12.83555542 -36.24334167 11.87788269 -36.24050903 10.89118958 C-36.24235262 10.06249768 -36.24419621 9.23380579 -36.24609566 8.38000202 C-35.95622038 5.57660533 -35.31171825 3.49509709 -34 1 C-30.875 0.1875 -30.875 0.1875 -28 0 C-28 0.99 -28 1.98 -28 3 C-21.4 3.33 -14.8 3.66 -8 4 C-8 3.01 -8 2.02 -8 1 C-2.25 -1.125 -2.25 -1.125 0 0 Z " fill="#0F78C0" transform="translate(156,25)"/>
<path d="M0 0 C10.23 0 20.46 0 31 0 C31 37.62 31 75.24 31 114 C20.77 114 10.54 114 0 114 C0 76.38 0 38.76 0 0 Z M2 1 C2 37.96 2 74.92 2 113 C10.91 113 19.82 113 29 113 C29 76.37 29 39.74 29 2 C20.94463602 -2.02768199 11.00617072 1 2 1 Z " fill="#CBE9F8" transform="translate(127,30)"/>
<path d="M0 0 C0 36.63 0 73.26 0 111 C-9.9 111 -19.8 111 -30 111 C-30 78.99 -30 46.98 -30 14 C-27.69 13.34 -25.38 12.68 -23 12 C-23.64874084 12.63721481 -24.29748169 13.27442963 -24.96588135 13.93095398 C-27.72011427 18.08649701 -27.57471853 21.2254858 -27.54589844 26.10473633 C-27.55623611 27.01254852 -27.56657379 27.92036072 -27.57722473 28.85568237 C-27.60665685 31.84797964 -27.608152 34.8396006 -27.609375 37.83203125 C-27.62435635 39.90998119 -27.6410834 41.98791921 -27.65948486 44.06584167 C-27.70317551 49.52876329 -27.72316138 54.99152427 -27.73822021 60.45458984 C-27.75778501 66.03167221 -27.79975578 71.60858095 -27.83984375 77.18554688 C-27.91516474 88.12367377 -27.96337368 99.06167501 -28 110 C-19.42 110 -10.84 110 -2 110 C-2 74.69 -2 39.38 -2 3 C-2.99 3 -3.98 3 -5 3 C-5.33 3.99 -5.66 4.98 -6 6 C-6.99 5.34 -7.98 4.68 -9 4 C-2.25 0 -2.25 0 0 0 Z " fill="#E8FEFE" transform="translate(47,33)"/>
<path d="M0 0 C0 36.96 0 73.92 0 112 C-1.32 111.67 -2.64 111.34 -4 111 C-4 74.7 -4 38.4 -4 1 C-1 0 -1 0 0 0 Z " fill="#0381BF" transform="translate(126,31)"/>
<path d="M0 0 C10.23 0 20.46 0 31 0 C31 37.62 31 75.24 31 114 C20.77 114 10.54 114 0 114 C0 76.38 0 38.76 0 0 Z M1 2 C0.90441964 3.44213999 0.87811606 4.88894079 0.87974548 6.33424377 C0.87837082 7.26958954 0.87699615 8.2049353 0.87557983 9.16862488 C0.87917511 10.20296158 0.88277039 11.23729828 0.88647461 12.30297852 C0.88632858 13.38577087 0.88618256 14.46856323 0.8860321 15.58416748 C0.88673177 19.18243374 0.89452667 22.78064897 0.90234375 26.37890625 C0.90420774 28.86612418 0.90563173 31.35334248 0.90663147 33.84056091 C0.9100665 39.73021191 0.91795723 45.6198439 0.92798096 51.50948709 C0.94023754 58.87025374 0.94562209 66.23102264 0.95117188 73.59179688 C0.96191185 86.72787581 0.97950987 99.86393265 1 113 C10.24 113 19.48 113 29 113 C29.02254797 98.54466854 29.04091331 84.08934867 29.05181217 69.63400364 C29.05697489 62.92258132 29.06401713 56.21117068 29.07543945 49.49975586 C29.08626565 43.02886264 29.09227626 36.55798158 29.09487724 30.08708 C29.09673198 27.61221055 29.1003535 25.1373418 29.10573006 22.66247749 C29.11293693 19.20929627 29.11399109 15.75616599 29.11352539 12.30297852 C29.11712067 11.26864182 29.12071594 10.23430511 29.12442017 9.16862488 C29.1230455 8.23327911 29.12167084 7.29793335 29.12025452 6.33424377 C29.12163721 5.10779821 29.12163721 5.10779821 29.12304783 3.85657597 C29.20369222 1.98409331 29.20369222 1.98409331 28 1 C26.08541718 0.90028214 24.16717683 0.86919411 22.25 0.8671875 C20.50203125 0.86525391 20.50203125 0.86525391 18.71875 0.86328125 C16.87796875 0.86908203 16.87796875 0.86908203 15 0.875 C13.7728125 0.87113281 12.545625 0.86726563 11.28125 0.86328125 C10.1159375 0.86457031 8.950625 0.86585937 7.75 0.8671875 C6.67234375 0.86831543 5.5946875 0.86944336 4.484375 0.87060547 C2.05780003 0.71907629 2.05780003 0.71907629 1 2 Z " fill="#C1E9F7" transform="translate(72,30)"/>
<path d="M0 0 C1.67542976 0.28604898 3.34385343 0.61781233 5 1 C5 1.99 5 2.98 5 4 C4.01 4.495 4.01 4.495 3 5 C3.33 5.33 3.66 5.66 4 6 C6.97 4.68 9.94 3.36 13 2 C13 1.34 13 0.68 13 0 C15.475 0.495 15.475 0.495 18 1 C15.76425846 3.4769862 13.63163521 4.8444543 10.62109375 6.26171875 C9.36329102 6.85629883 9.36329102 6.85629883 8.08007812 7.46289062 C6.77200195 8.06907227 6.77200195 8.06907227 5.4375 8.6875 C4.56158203 9.10322266 3.68566406 9.51894531 2.78320312 9.94726562 C-3.72829433 13 -3.72829433 13 -6 13 C-6 45.01 -6 77.02 -6 110 C-6.66 110 -7.32 110 -8 110 C-8.02316448 97.43912808 -8.04093608 84.87826124 -8.05181217 72.31737232 C-8.05703199 66.48493 -8.06411335 60.65250228 -8.07543945 54.82006836 C-8.08630026 49.19205774 -8.09228364 43.56406117 -8.09487724 37.93604088 C-8.09672572 35.78824327 -8.10033528 33.64044643 -8.10573006 31.4926548 C-8.1129828 28.48572753 -8.11398914 25.47885843 -8.11352539 22.47192383 C-8.11712067 21.58287857 -8.12071594 20.69383331 -8.12442017 19.77784729 C-8.11759603 15.6920619 -7.91371353 12.00036414 -7 8 C-7 6.68 -7 5.36 -7 4 C-6.030625 3.525625 -5.06125 3.05125 -4.0625 2.5625 C-1.19522563 1.29806053 -1.19522563 1.29806053 0 0 Z " fill="#3DACD0" transform="translate(23,34)"/>
<path d="M0 0 C-0.10710706 14.97691537 -0.2198444 29.95378039 -0.33933926 44.93060207 C-0.3946869 51.88413731 -0.44817137 58.83767768 -0.49731445 65.79125977 C-0.54470133 72.49561109 -0.597221 79.19990387 -0.65294075 85.90419197 C-0.67339923 88.46836091 -0.69210638 91.0325444 -0.70907402 93.59673882 C-0.73304096 97.17449105 -0.76310571 100.75214195 -0.79467773 104.32983398 C-0.8004332 105.40157364 -0.80618866 106.47331329 -0.81211853 107.57752991 C-0.82680176 109.03103348 -0.82680176 109.03103348 -0.84178162 110.51390076 C-0.84823417 111.36102851 -0.85468672 112.20815626 -0.8613348 113.08095455 C-1 115 -1 115 -2 116 C-4.3756852 116.0883967 -6.72208674 116.11530305 -9.09765625 116.09765625 C-10.16094398 116.09553383 -10.16094398 116.09553383 -11.24571228 116.09336853 C-13.51801712 116.08775443 -15.79022475 116.07519963 -18.0625 116.0625 C-19.59960796 116.05748681 -21.13671745 116.05292359 -22.67382812 116.04882812 C-26.44925642 116.03778042 -30.22461171 116.02050641 -34 116 C-34 115.67 -34 115.34 -34 115 C-23.77 115 -13.54 115 -3 115 C-3 77.38 -3 39.76 -3 1 C-12.9 1 -22.8 1 -33 1 C-33 0.67 -33 0.34 -33 0 C-29.33346352 -0.1696134 -25.66675358 -0.33515203 -22 -0.5 C-20.97003906 -0.54769531 -19.94007812 -0.59539063 -18.87890625 -0.64453125 C-2.72916667 -1.36458333 -2.72916667 -1.36458333 0 0 Z " fill="#1682B8" transform="translate(106,29)"/>
<path d="M0 0 C0 36.63 0 73.26 0 111 C-0.33 111 -0.66 111 -1 111 C-1.33 75.36 -1.66 39.72 -2 3 C-2.99 3 -3.98 3 -5 3 C-5.33 3.99 -5.66 4.98 -6 6 C-6.99 5.34 -7.98 4.68 -9 4 C-2.25 0 -2.25 0 0 0 Z " fill="#CDFEFE" transform="translate(47,33)"/>
<path d="M0 0 C0.99 0 1.98 0 3 0 C2.67 0.99 2.34 1.98 2 3 C1.899594 4.52252218 1.85384995 6.0489712 1.84178162 7.57475281 C1.8319928 8.5128479 1.82220398 9.45094299 1.81211853 10.41746521 C1.80636307 11.44461136 1.8006076 12.47175751 1.79467773 13.5300293 C1.78477814 14.61311371 1.77487854 15.69619812 1.76467896 16.81210327 C1.73303945 20.3994527 1.70829674 23.98681539 1.68359375 27.57421875 C1.66302635 30.05858203 1.64202993 32.5429418 1.62062073 35.02729797 C1.57102732 40.90268324 1.52576769 46.77808945 1.48259836 52.65352517 C1.42836417 59.99887146 1.36741788 67.3441583 1.30664062 74.68945312 C1.19903214 87.79292909 1.09740657 100.89644443 1 114 C0.67 114 0.34 114 0 114 C0 76.38 0 38.76 0 0 Z " fill="#1169A7" transform="translate(158,30)"/>
<path d="M0 0 C1.67542976 0.28604898 3.34385343 0.61781233 5 1 C5 1.99 5 2.98 5 4 C4.01 4.495 4.01 4.495 3 5 C3 5.99 3 6.98 3 8 C-2.41538462 11.07692308 -2.41538462 11.07692308 -5.375 10.6875 C-5.91125 10.460625 -6.4475 10.23375 -7 10 C-7 8.02 -7 6.04 -7 4 C-6.030625 3.525625 -5.06125 3.05125 -4.0625 2.5625 C-1.19522563 1.29806053 -1.19522563 1.29806053 0 0 Z " fill="#04A7DD" transform="translate(23,34)"/>
<path d="M0 0 C0 0.33 0 0.66 0 1 C1.32 1.66 2.64 2.32 4 3 C4 3.66 4 4.32 4 5 C-6.89 5 -17.78 5 -29 5 C-29 4.67 -29 4.34 -29 4 C-22.07 4 -15.14 4 -8 4 C-8 3.01 -8 2.02 -8 1 C-2.25 -1.125 -2.25 -1.125 0 0 Z " fill="#0B72B5" transform="translate(156,25)"/>
<path d="M0 0 C2.475 0.495 2.475 0.495 5 1 C2.92733168 3.24435921 1.00788067 4.68404081 -1.72265625 6.04296875 C-2.42583984 6.39423828 -3.12902344 6.74550781 -3.85351562 7.10742188 C-4.58248047 7.46384766 -5.31144531 7.82027344 -6.0625 8.1875 C-6.79533203 8.55552734 -7.52816406 8.92355469 -8.28320312 9.30273438 C-13.73278061 12 -13.73278061 12 -16 12 C-16 11.34 -16 10.68 -16 10 C-13.35261084 8.5393715 -12.10551666 8 -9 8 C-9 7.34 -9 6.68 -9 6 C-6.03 4.68 -3.06 3.36 0 2 C0 1.34 0 0.68 0 0 Z " fill="#2CA5D0" transform="translate(36,34)"/>
<path d="M0 0 C0 0.99 0 1.98 0 3 C-0.86625 3.1546875 -0.86625 3.1546875 -1.75 3.3125 C-4.32049158 4.09792798 -5.93657284 5.30504197 -8 7 C-8.66 6.67 -9.32 6.34 -10 6 C-9.67 5.34 -9.34 4.68 -9 4 C-9.66 3.67 -10.32 3.34 -11 3 C-8.21756596 -1.17365106 -4.53441502 -0.22300402 0 0 Z " fill="#04A5E1" transform="translate(41,32)"/>
<path d="M0 0 C-0.33 0.99 -0.66 1.98 -1 3 C-2.98 3.33 -4.96 3.66 -7 4 C-7 3.01 -7 2.02 -7 1 C-3.375 -1.125 -3.375 -1.125 0 0 Z " fill="#06A8EB" transform="translate(24,41)"/>
<path d="M0 0 C0 2.31 0 4.62 0 7 C-0.33 7 -0.66 7 -1 7 C-1 5.35 -1 3.7 -1 2 C-1.99 2 -2.98 2 -4 2 C-4.33 2.99 -4.66 3.98 -5 5 C-5.99 4.34 -6.98 3.68 -8 3 C-2.25 0 -2.25 0 0 0 Z " fill="#DCF5FD" transform="translate(46,34)"/>
<path d="M0 0 C2.64 0 5.28 0 8 0 C7.67 1.32 7.34 2.64 7 4 C5.68 3.67 4.36 3.34 3 3 C3.33 2.67 3.66 2.34 4 2 C2.68 1.34 1.36 0.68 0 0 Z " fill="#058EDE" transform="translate(72,18)"/>
<path d="M0 0 C2.97 0.495 2.97 0.495 6 1 C5.67 1.66 5.34 2.32 5 3 C3.02 3 1.04 3 -1 3 C-0.67 2.01 -0.34 1.02 0 0 Z " fill="#0B83D9" transform="translate(97,23)"/>
</svg>
